HIERARCHY
ROOT ui
{
	 OFFSET 0 0 0
	 CHANNELS 3 XPosition YPosition Z Position
	 EndSite
	 {
	 OFFSET 0 -1 0
	 }
}
ROOT li
{
	 OFFSET 0 0 0
	 CHANNELS 3 XPosition YPosition Z Position
	 EndSite
	 {
	 OFFSET 0 -1 0
	 }
}
ROOT ul
{
	 OFFSET 0 0 0
	 CHANNELS 3 XPosition YPosition Z Position
	 EndSite
	 {
	 OFFSET 0 -1 0
	 }
}
ROOT ll
{
	 OFFSET 0 0 0
	 CHANNELS 3 XPosition YPosition Z Position
	 EndSite
	 {
	 OFFSET 0 -1 0
	 }
}
ROOT tt
{
	 OFFSET 0 0 0
	 CHANNELS 3 XPosition YPosition Z Position
	 EndSite
	 {
	 OFFSET 0 -1 0
	 }
}
ROOT tb
{
	 OFFSET 0 0 0
	 CHANNELS 3 XPosition YPosition Z Position
	 EndSite
	 {
	 OFFSET 0 -1 0
	 }
}
ROOT td
{
	 OFFSET 0 0 0
	 CHANNELS 3 XPosition YPosition Z Position
	 EndSite
	 {
	 OFFSET 0 -1 0
	 }
}
ROOT v
{
	 OFFSET 0 0 0
	 CHANNELS 3 XPosition YPosition Z Position
	 EndSite
	 {
	 OFFSET 0 -1 0
	 }
}
ROOT bn
{
	 OFFSET 0 0 0
	 CHANNELS 3 XPosition YPosition Z Position
	 EndSite
	 {
	 OFFSET 0 -1 0
	 }
}
MOTION
Frames: 29
Frame Time: 0.002
-0.0034623448848724366	0.001234246015548706	0		0.5518291015625	-2.361708984375	0		-1.0613885498046876	-0.08169427490234375	0		-0.7360479736328125	-2.343224365234375	0		1.0143987426757812	-0.5904547729492188	0		2.730995361328125	-0.1604031982421875	0		4.29767333984375	0.08720793914794922	0		5.54892626953125	0.164529296875	0		-0.41938818359375	5.83690869140625	0		
0.026706241607666017	-0.0038423309326171876	0		0.5191847534179688	-2.366306640625	0		-1.079115966796875	-0.07388685607910156	0		-0.7287422485351562	-2.3528095703125	0		1.032374267578125	-0.5947532958984375	0		2.754173095703125	-0.16034928894042969	0		4.29692724609375	0.08598007965087891	0		5.545423828125	0.14968597412109375	0		-0.41814715576171874	5.837310546875	0		
-8.372200280427933E-5	-0.0032937979698181154	0		0.543578369140625	-2.368502685546875	0		-1.079930908203125	-0.07325801849365235	0		-0.74325244140625	-2.3461533203125	0		1.0093973388671875	-0.5935860595703125	0		2.740396728515625	-0.15485916137695313	0		4.29616552734375	0.08480915069580078	0		5.55192626953125	0.1416167755126953	0		-0.2837462158203125	5.8582333984375	0		
0.020182716369628907	0.0017393009662628174	0		0.5170882568359375	-2.3631162109375	0		-1.138807861328125	-0.07797119903564453	0		-0.7678386840820313	-2.3493759765625	0		1.008418212890625	-0.5936358642578125	0		2.75764892578125	-0.1476719055175781	0		4.30339208984375	0.08261207580566406	0		5.547099609375	0.15129324340820313	0		-0.4158970031738281	5.83812548828125	0		
0.024350250244140625	-0.0030475969314575197	0		0.543579345703125	-2.364325927734375	0		-1.0646224365234376	-0.0792289047241211	0		-0.731332275390625	-2.349311279296875	0		1.010498291015625	-0.590701416015625	0		2.747700927734375	-0.15912918090820313	0		4.30179638671875	0.0945870590209961	0		5.5507294921875	0.1366692657470703	0		-0.4119241027832031	5.8354951171875	0		
-0.0023987059593200684	-0.002462522029876709	0		0.5161873779296875	-2.360890380859375	0		-1.0653951416015626	-0.07864427185058594	0		-0.7327579345703125	-2.348822265625	0		1.031564697265625	-0.5919789428710938	0		2.763157470703125	-0.13883560180664062	0		4.29700146484375	0.08767686462402344	0		5.55306982421875	0.14646690368652343	0		-0.277751953125	5.85528564453125	0		
-0.008057682991027833	0.0028758950233459474	0		0.5657301025390625	-2.369380859375	0		-1.070185546875	-0.08203186798095703	0		-0.747034423828125	-2.34218896484375	0		1.0056624755859376	-0.5936712036132813	0		2.757227294921875	-0.15323886108398438	0		4.3073037109375	0.08666306304931641	0		5.5525478515625	0.1496018829345703	0		-0.2798493957519531	5.85967333984375	0		
-0.006843719959259033	-0.004874328136444092	0		0.5104952392578125	-2.3655703125	0		-1.0837525634765626	-0.07032997894287109	0		-0.7394309692382812	-2.3518427734375	0		1.0268140869140625	-0.5949263916015625	0		2.74346630859375	-0.15649038696289064	0		4.29564013671875	0.08599954986572265	0		5.5448681640625	0.1427504425048828	0		-0.27612454223632815	5.8559775390625	0		
0.02154511070251465	-0.0019784510135650636	0		0.5373009033203126	-2.36578076171875	0		-1.071556884765625	-0.08097942352294922	0		-0.7745657348632813	-2.346970703125	0		0.986982666015625	-0.598397216796875	0		2.76662841796875	-0.16916390991210936	0		4.3039873046875	0.0831591796875	0		5.55150927734375	0.14081834411621094	0		-0.4086773681640625	5.83701318359375	0		
0.0020364449024200437	0.00552213191986084	0		0.5153265380859375	-2.355364501953125	0		-1.0581502685546875	-0.07867475891113282	0		-0.7356455078125	-2.345068115234375	0		1.0342626953125	-0.59797509765625	0		2.744370849609375	-0.14021253967285155	0		4.303404296875	0.08249800872802734	0		5.55397021484375	0.1512710418701172	0		-0.37976025390625	5.8579921875	0		
0.020390642166137694	-0.0014799900054931641	0		0.562170654296875	-2.3658515625	0		-1.068691162109375	-0.07608406829833984	0		-0.7386891479492188	-2.346646728515625	0		1.0056865844726564	-0.5905614624023438	0		2.747472412109375	-0.16455825805664062	0		4.3	0.09193292999267579	0		5.5477138671875	0.12579837036132813	0		-0.40742730712890624	5.8376884765625	0		
-0.00611089277267456	-8.972650170326233E-4	0		0.5072760009765624	-2.361993408203125	0		-1.0732620849609376	-0.07959522247314453	0		-0.716587158203125	-2.343581298828125	0		1.0679879150390625	-0.5973531494140625	0		2.741032958984375	-0.15774700927734375	0		4.29340673828125	0.08345934295654298	0		5.54019775390625	0.12470663452148438	0		-0.273585205078125	5.8572158203125	0		
0.015376514434814453	-0.004969607830047607	0		0.5313431396484375	-2.36719482421875	0		-1.077772216796875	-0.08213086700439454	0		-0.7445391845703125	-2.349865478515625	0		1.0014758911132813	-0.5934158935546875	0		2.7464541015625	-0.16507466125488282	0		4.3039638671875	0.08279593658447265	0		5.54698046875	0.12324375915527344	0		-0.4063060302734375	5.8382958984375	0		
-0.006978950023651123	-4.5931899547576905E-4	0		0.50457861328125	-2.364712646484375	0		-1.0741563720703124	-0.07880103302001953	0		-0.7433035278320312	-2.34756201171875	0		1.0009682006835938	-0.5933670043945313	0		2.729319580078125	-0.14307635498046875	0		4.29664892578125	0.08840647888183593	0		5.54245361328125	0.13433818054199217	0		-0.40577374267578126	5.83857275390625	0		
0.01864676284790039	-6.236749887466431E-4	0		0.5069146423339844	-2.359635986328125	0		-1.07048486328125	-0.07449696350097657	0		-0.7779613037109375	-2.341780517578125	0		1.0035471801757812	-0.5903661499023437	0		2.748687744140625	-0.16057394409179687	0		4.3182880859375	0.08763990783691407	0		5.54930029296875	0.13299974060058595	0		-0.4393192138671875	5.83430322265625	0		
-0.007688104152679443	-8.078599721193314E-5	0		0.5321903076171876	-2.362893798828125	0		-1.0708330078125	-0.0741611328125	0		-0.7097574462890625	-2.350455078125	0		1.0251080322265624	-0.5916399536132813	0		2.741594482421875	-0.1416957244873047	0		4.2918818359375	0.08155966186523438	0		5.54611767578125	0.119934326171875	0		-0.4047433471679687	5.83906982421875	0		
0.013943061828613282	-0.004226122856140137	0		0.5025296020507812	-2.364390625	0		-1.07520947265625	-0.07779143524169922	0		-0.7473731079101562	-2.348667724609375	0		1.0216743774414063	-0.5945731201171875	0		2.744924560546875	-0.1659624328613281	0		4.3086806640625	0.08789204406738281	0		5.54587744140625	0.1189242172241211	0		-0.2709648132324219	5.85840283203125	0		
-0.008288470268249512	2.363390028476715E-4	0		0.5278992309570313	-2.366677978515625	0		-1.0795526123046875	-0.08044364929199219	0		-0.7608829345703125	-2.34223486328125	0		0.9962659301757812	-0.5971985473632813	0		2.7427841796875	-0.15414341735839843	0		4.295388671875	0.08666567230224609	0		5.54565185546875	0.11795545196533203	0		-0.2704906311035156	5.858587890625	0		
-0.01161088752746582	-0.0025836899280548098	0		0.5122706298828125	-2.37039111328125	0		-1.1497625732421874	-0.07416493225097656	0		-0.7845076904296875	-2.345673095703125	0		0.998969970703125	-0.5932302856445313	0		2.76223828125	-0.1716344757080078	0		4.30000390625	0.07819795989990234	0		5.54835986328125	0.12903379821777344	0		-0.37307742309570313	5.85724365234375	0		
-0.004786133766174316	0.004436842918395996	0		0.5417412109375	-2.368766357421875	0		-1.062056640625	-0.07518813323974609	0		-0.74300634765625	-2.3420703125	0		1.0165347900390624	-0.5994874877929688	0		2.749336181640625	-0.14465185546875	0		4.29794091796875	0.09184073638916015	0		5.5510732421875	0.14014321899414062	0		-0.40193679809570315	5.8388330078125	0		
-0.009122262001037598	6.056389808654785E-4	0		0.5053615417480469	-2.35719140625	0		-1.0723131103515624	-0.07281307983398437	0		-0.7455772705078125	-2.34384814453125	0		1.0202618408203126	-0.5945518188476563	0		2.743719482421875	-0.16677626037597656	0		4.31249560546875	0.07924779510498046	0		5.54793310546875	0.12726505279541014	0		-0.37423870849609375	5.86058935546875	0		
-0.009406689643859864	7.039080262184143E-4	0		0.5516415405273437	-2.36984130859375	0		-1.0766640625	-0.07654110717773438	0		-0.7501721801757812	-2.347611083984375	0		0.9979306640625	-0.5932392578125	0		2.741594482421875	-0.15494540405273438	0		4.2902216796875	0.07920687866210938	0		5.54478955078125	0.11441583251953125	0		-0.26890524291992185	5.85917578125	0		
-0.009698850631713867	7.906140089035034E-4	0		0.4991867980957031	-2.364039306640625	0		-1.08100830078125	-0.07928533172607422	0		-0.7527490844726562	-2.35041845703125	0		1.0635257568359375	-0.5972369384765625	0		2.743107666015625	-0.16716871643066405	0		4.2899375	0.07885346984863281	0		5.537435546875	0.11385863494873047	0		-0.2685977478027344	5.8592890625	0		
0.011939207077026366	-0.003462960958480835	0		0.5505758056640625	-2.36979150390625	0		-1.081315673828125	-0.07910548400878906	0		-0.7512333984375	-2.347301025390625	0		0.9972200927734375	-0.5932786254882813	0		2.735092041015625	-0.14724447631835938	0		4.29373486328125	0.08444869995117188	0		5.54013427734375	0.12507625579833984	0		-0.4006402587890625	5.8393681640625	0		
-0.010304125785827636	9.301040172576905E-4	0		0.5012054138183594	-2.35904248046875	0		-1.0735242919921875	-0.07206279754638673	0		-0.7497279663085937	-2.345197998046875	0		1.0218863525390625	-0.5916851196289062	0		2.745545166015625	-0.16260006713867187	0		4.28855810546875	0.09218629455566406	0		5.53990380859375	0.124310302734375	0		-0.3721038513183594	5.85904443359375	0		
0.01538252353668213	5.896279811859131E-4	0		0.5526033935546875	-2.364822021484375	0		-1.0779012451171874	-0.07585368347167969	0		-0.7502470092773438	-2.345078857421875	0		1.0054493408203125	-0.5964804077148438	0		2.754507080078125	-0.1439302520751953	0		4.30004248046875	0.07767720794677735	0		5.5468017578125	0.12330352020263671	0		-0.26689007568359374	5.8585390625	0		
-0.010928572654724121	0.0010268640518188476	0		0.49709539794921875	-2.36398828125	0		-1.0782218017578125	-0.07572002410888672	0		-0.7178397216796875	-2.35047509765625	0		1.062078125	-0.5973916625976563	0		2.744892333984375	-0.16298176574707032	0		4.29973486328125	0.07735547637939454	0		5.54656640625	0.12257993316650391	0		-0.26769281005859374	5.859619140625	0		
0.010690284729003905	-0.003276120901107788	0		0.5485050048828125	-2.36979150390625	0		-1.086651611328125	-0.08247721862792969	0		-0.755342041015625	-2.34981787109375	0		0.9927053833007813	-0.5973875122070312	0		2.735593505859375	-0.16103248596191405	0		4.299423828125	0.07704195404052734	0		5.54339990234375	0.10987616729736328	0		-0.371556884765625	5.8592666015625	0		
-0.011566130638122559	0.0010846290588378907	0		0.5049621276855468	-2.37214794921875	0		-1.076994873046875	-0.0835244598388672	0		-0.74393603515625	-2.355920654296875	0		1.0173825073242186	-0.5948253784179688	0		2.7590732421875	-0.1735865936279297	0		4.29707861328125	0.07476717376708984	0		5.5389580078125	0.12146502685546876	0		-0.35530734252929685	5.8670712890625	0		
